<?xml version="1.0" encoding="UTF-8"?>
<svg width="18px" height="18px" viewBox="0 0 18 18" version="1.1" xmlns="http://www.w3.org/2000/svg" xmlns:xlink="http://www.w3.org/1999/xlink">
    <title>download</title>
    <g id="download" stroke="none" stroke-width="1" fill="none" fill-rule="evenodd">
        <path d="M9,1 C9.55228475,1 10,1.44771525 10,2 L10,11.666667 C10,12.2189517 9.55228475,12.666667 9,12.666667 C8.44771525,12.666667 8,12.2189517 8,11.666667 L8,2 C8,1.44771525 8.44771525,1 9,1 Z" id="Line" fill="#FFFFFF" fill-rule="nonzero"></path>
        <path d="M13.8000589,8.40005885 C14.1314297,8.84188665 14.0418867,9.468688 13.6000589,9.80005885 L9.55823274,12.8301112 L9.43198925,12.9021813 L9.37324327,12.9280807 L9.30206756,12.9534449 L9.18778414,12.9822874 L9.06282219,12.9981064 L8.93752825,12.9982145 L8.85125743,12.9891033 L8.78320792,12.976282 L8.66195184,12.9412845 L8.54422371,12.890377 L8.43475225,12.8252693 L4.40005885,9.80005885 C3.95823105,9.468688 3.868688,8.84188665 4.20005885,8.40005885 C4.5314297,7.95823105 5.15823105,7.868688 5.60005885,8.20005885 L9.00005885,10.7500589 L12.4000589,8.20005885 C12.8418867,7.868688 13.468688,7.95823105 13.8000589,8.40005885 Z" id="Combined-Shape" fill="#FFFFFF" fill-rule="nonzero"></path>
        <path d="M16,14.5 C16.5522847,14.5 17,14.9477153 17,15.5 C17,16.0522847 16.5522847,16.5 16,16.5 L2,16.5 C1.44771525,16.5 1,16.0522847 1,15.5 C1,14.9477153 1.44771525,14.5 2,14.5 L16,14.5 Z" id="Line" fill="#FFFFFF" fill-rule="nonzero"></path>
    </g>
</svg>