<?xml version="1.0" encoding="UTF-8"?>
<svg width="24px" height="24px" viewBox="0 0 24 24" version="1.1" xmlns="http://www.w3.org/2000/svg" xmlns:xlink="http://www.w3.org/1999/xlink">
    <title>linkedin</title>
    <g id="Layouts" stroke="none" stroke-width="1" fill="none" fill-rule="evenodd">
        <g id="Pillar_page" transform="translate(-1308.000000, -661.000000)">
            <g id="linkedin" transform="translate(1308.000000, 661.000000)">
                <circle id="Oval-Copy-4" cx="12" cy="12" r="12"></circle>
                <path d="M5.29727187,9.46807982 L8.04891816,9.46807982 L8.04891816,19.0579196 L5.29727187,19.0579196 L5.29727187,9.46807982 Z M6.60295501,8.2685589 L6.58303359,8.2685589 C5.58696254,8.2685589 4.94117647,7.53546813 4.94117647,6.60712752 C4.94117647,5.6598043 5.6060539,4.94117647 6.62204637,4.94117647 C7.63720879,4.94117647 8.26141331,5.65799643 8.28133474,6.60441572 C8.28133474,7.53275632 7.63720879,8.2685589 6.60295501,8.2685589 L6.60295501,8.2685589 Z M19.0588235,19.0588235 L15.938631,19.0588235 L15.938631,14.0953199 C15.938631,12.7963662 15.4505561,11.9105105 14.3772896,11.9105105 C13.556361,11.9105105 13.0998285,12.5080111 12.8873333,13.0856252 C12.8076476,13.2917222 12.8200985,13.5800773 12.8200985,13.8693363 L12.8200985,19.0588235 L9.728958,19.0588235 C9.728958,19.0588235 9.76880084,10.2671578 9.728958,9.46807982 L12.8200985,9.46807982 L12.8200985,10.9731306 C13.0027115,10.3150663 13.990482,9.37587851 15.5667644,9.37587851 C17.5223839,9.37587851 19.0588235,10.7561863 19.0588235,13.7256107 L19.0588235,19.0588235 L19.0588235,19.0588235 Z" id="Shape" fill="#880212"></path>
            </g>
        </g>
    </g>
</svg>