<?xml version="1.0" encoding="UTF-8"?>
<svg id="_1" data-name="1" xmlns="http://www.w3.org/2000/svg" viewBox="0 0 235.5 216">
  <defs>
    <style>
      .cls-1 {
        fill: #f18700;
      }
    </style>
  </defs>
  <path class="cls-1" d="m117.29,171.78c1.75,9.86,31.86-.06,37.34,3.9-6.77-4.9-28.57-4.68-39.45-15.8-19.96-20.41-15.53-35.24-16.28-39.9,0,0,4.23,10.82,11.7,18.11,11.42,11.15,27.59,12.82,27.59,12.82,0,0-16.16-6.69-20.62-22.6-10.87-38.79-27.03-33.14-36.5-35.11,7.53-1.21,51.48-15.11,57.12,18.39,3.9,23.15,30.93,21.76,30.93,21.76,0,0-15.05-10.87-18.11-33.74-2.26-16.87-22.55-22.26-27.59-19.76,10.03-4.99,40.4-7.22,47.65,22.29,2.87,11.69,16,17.54,28.13,27,.01-.59.05-1.18.05-1.78,0-38.92-31.55-70.47-70.47-70.47s-70.47,31.55-70.47,70.47,31.55,70.47,70.47,70.47c7.75,0,15.19-1.27,22.16-3.58-11.79-3.16-30.42-4.36-33.65-22.48Z"/>
  <path class="cls-1" d="m22.18,129.8h-8.86c0-63.76,51.87-115.64,115.64-115.64v8.86c-58.88,0-106.78,47.9-106.78,106.78Z"/>
  <path class="cls-1" d="m43.2,129.8h-8.86c0-52.17,42.44-94.61,94.61-94.61v8.86c-47.28,0-85.75,38.47-85.75,85.75Z"/>
</svg>