<?xml version="1.0" encoding="UTF-8"?><svg version="1.1" width="23px" height="22px" viewBox="0 0 23.0 22.0" xmlns="http://www.w3.org/2000/svg" xmlns:xlink="http://www.w3.org/1999/xlink"><defs><clipPath id="i0"><path d="M375,0 L375,6042 L0,6042 L0,0 L375,0 Z"></path></clipPath><clipPath id="i1"><path d="M8.5,0 C13.192,0 17,3.808 17,8.5 C17,8.568 16.9902857,8.64571429 16.9902857,8.71371429 C15.5331429,7.57714286 13.9497143,6.868 13.6,5.45942857 C12.7354286,1.89428571 9.07314286,2.16628571 7.85885714,2.76857143 C8.46114286,2.46742857 10.9091429,3.11828571 11.1811429,5.14857143 C11.5502857,7.90742857 13.3668571,9.21885714 13.3668571,9.21885714 C13.3668571,9.21885714 13.3453991,9.21994282 13.3057143,9.22045199 L13.2029994,9.2202092 C12.5357855,9.20956152 10.0398456,9.00724324 9.63657143,6.596 C8.95657143,2.55485714 3.65257143,4.23542857 2.74914286,4.38114286 C3.88571429,4.624 5.83828571,3.944 7.14971429,8.61657143 C7.684,10.5302857 9.63657143,11.3365714 9.63657143,11.3365714 C9.63657143,11.3365714 7.69371429,11.1325714 6.31428571,9.792 C5.41085714,8.908 4.90571429,7.60628571 4.90571429,7.60628571 C4.99314286,8.16971429 4.45885714,9.95714286 6.868,12.4148571 C8.17942857,13.7554286 10.812,13.7262857 11.628,14.3188571 C10.9771429,13.8428571 7.344,15.0377143 7.13028571,13.8525714 C7.51885714,16.0382857 9.76285714,16.1742857 11.1714286,16.5725714 C10.336,16.8445714 9.43257143,17 8.5,17 C3.808,17 0,13.192 0,8.5 C0,3.808 3.808,0 8.5,0 Z"></path></clipPath><clipPath id="i2"><path d="M14,0 L14,1.0724234 C6.87325905,1.0724234 1.0724234,6.87325905 1.0724234,14 L0,14 C0,6.27855153 6.27855153,0 14,0 Z"></path></clipPath><clipPath id="i3"><path d="M12,0 L12,1.12340426 C6.00510638,1.12340426 1.12340426,6.00510638 1.12340426,12 L0,12 C0,5.38212766 5.38212766,0 12,0 Z"></path></clipPath></defs><g transform="translate(-17.0 -5.0)"><g clip-path="url(#i0)"><g transform="translate(17.0 5.0)"><g transform="translate(6.0 5.0)"><g clip-path="url(#i1)"><polygon points="0,0 17,0 17,17 0,17 0,0" stroke="none" fill="#FFFFFF"></polygon></g></g><g clip-path="url(#i2)"><polygon points="0,0 14,0 14,14 0,14 0,0" stroke="none" fill="#FFFFFF"></polygon></g><g transform="translate(3.0 3.0)"><g clip-path="url(#i3)"><polygon points="0,0 12,0 12,12 0,12 0,0" stroke="none" fill="#FFFFFF"></polygon></g></g></g></g></g></svg>