<?xml version="1.0" encoding="UTF-8"?>
<svg width="24px" height="24px" viewBox="0 0 24 24" version="1.1" xmlns="http://www.w3.org/2000/svg" xmlns:xlink="http://www.w3.org/1999/xlink">
    <title>share</title>
    <g id="Layouts" stroke="none" stroke-width="1" fill="none" fill-rule="evenodd">
        <g id="Pillar_page" transform="translate(-1308.000000, -697.000000)">
            <g id="share" transform="translate(1308.000000, 697.000000)">
                <circle id="Oval-Copy-4" cx="12" cy="12" r="12"></circle>
                <path d="M15.4545455,6.27272727 C14.752,6.27272727 14.1818182,6.84290909 14.1818182,7.54545455 C14.1818182,7.751 14.2301818,7.94381818 14.3154545,8.11436364 C14.5254545,8.53309091 14.9569091,8.81818182 15.4545455,8.81818182 C16.1570909,8.81818182 16.7272727,8.248 16.7272727,7.54545455 C16.7272727,6.84290909 16.1570909,6.27272727 15.4545455,6.27272727 Z M12.9090909,7.54545455 C12.9090909,6.13972727 14.0488182,5 15.4545455,5 C16.8602727,5 18,6.13972727 18,7.54545455 C18,8.95118182 16.8602727,10.0909091 15.4545455,10.0909091 C14.6877273,10.0909091 14.0010909,9.75172727 13.5346364,9.21654545 L9.03490909,11.4667273 C9.07181818,11.6391818 9.09090909,11.8173636 9.09090909,12 C9.09090909,12.1826364 9.07181818,12.3608182 9.03490909,12.5332727 L13.5346364,14.7834545 C14.0010909,14.2482727 14.6877273,13.9090909 15.4545455,13.9090909 C16.8602727,13.9090909 18,15.0488182 18,16.4545455 C18,17.8602727 16.8602727,19 15.4545455,19 C14.0488182,19 12.9090909,17.8602727 12.9090909,16.4545455 C12.9090909,16.2719091 12.9281818,16.0937273 12.9650909,15.9212727 L8.46536364,13.6710909 C7.99890909,14.2062727 7.31227273,14.5454545 6.54545455,14.5454545 C5.13972727,14.5454545 4,13.4057273 4,12 C4,10.5942727 5.13972727,9.45454545 6.54545455,9.45454545 C7.31227273,9.45454545 7.99890909,9.79372727 8.46536364,10.3289091 L12.9650909,8.07872727 C12.9281818,7.90627273 12.9090909,7.72809091 12.9090909,7.54545455 Z M6.54545455,10.7272727 C5.84290909,10.7272727 5.27272727,11.2974545 5.27272727,12 C5.27272727,12.7025455 5.84290909,13.2727273 6.54545455,13.2727273 C7.04245455,13.2727273 7.47454545,12.9876364 7.68454545,12.5689091 C7.76981818,12.3983636 7.81818182,12.2055455 7.81818182,12 C7.81818182,11.7944545 7.76981818,11.6016364 7.68454545,11.4310909 C7.47454545,11.0123636 7.04245455,10.7272727 6.54545455,10.7272727 Z M15.4545455,15.1818182 C14.9569091,15.1818182 14.5254545,15.4669091 14.3154545,15.8856364 C14.2301818,16.0561818 14.1818182,16.249 14.1818182,16.4545455 C14.1818182,17.1570909 14.752,17.7272727 15.4545455,17.7272727 C16.1570909,17.7272727 16.7272727,17.1570909 16.7272727,16.4545455 C16.7272727,15.752 16.1570909,15.1818182 15.4545455,15.1818182 L15.4545455,15.1818182 Z" id="Fill-936" fill="#880212"></path>
            </g>
        </g>
    </g>
</svg>