<?xml version="1.0" encoding="UTF-8"?>
<svg width="24px" height="24px" viewBox="0 0 24 24" version="1.1" xmlns="http://www.w3.org/2000/svg" xmlns:xlink="http://www.w3.org/1999/xlink">
    <title>twitter</title>
    <g id="Layouts" stroke="none" stroke-width="1" fill="none" fill-rule="evenodd">
        <g id="Pillar_page" transform="translate(-1308.000000, -625.000000)">
            <g id="twitter" transform="translate(1308.000000, 625.000000)">
                <circle id="Oval-Copy-3" cx="12" cy="12" r="12"></circle>
                <path d="M18.0184581,7.65581055 C18.6466549,7.25938262 19.1286784,6.6307874 19.3548989,5.88197908 C18.7667257,6.24995964 18.116777,6.51608024 17.4233243,6.66015243 C16.8699543,6.0361455 16.0790529,5.64705882 15.2037538,5.64705882 C13.524502,5.64705882 12.1636991,7.08319243 12.1636991,8.85427093 C12.1636991,9.10570902 12.1889314,9.3507235 12.2411361,9.5847261 C9.71442777,9.45074815 7.47397533,8.17520456 5.97308971,6.23344181 C5.71119605,6.70878827 5.56154253,7.25938262 5.56154253,7.84668326 C5.56154253,8.95888386 6.09838103,9.94077712 6.91451478,10.5170659 C6.41595973,10.500548 5.94698735,10.3546405 5.53631025,10.1160497 L5.53631025,10.1555089 C5.53631025,11.7100203 6.5838849,13.00667 7.97688077,13.3003203 C7.72107765,13.3755682 7.45309344,13.4131922 7.17466828,13.4131922 C6.97890059,13.4131922 6.7874833,13.3939214 6.60302663,13.3562974 C6.98934154,14.6300057 8.11261303,15.5586748 9.44383332,15.5834516 C8.40234921,16.4442141 7.09114074,16.9562668 5.66682204,16.9562668 C5.42145987,16.9562668 5.17870793,16.942502 4.94117647,16.9122193 C6.28718809,17.8216176 7.88552251,18.3529412 9.6030577,18.3529412 C15.1976632,18.3529412 18.2551195,13.4654986 18.2551195,9.22683978 C18.2551195,9.08735587 18.2533793,8.94878963 18.2472888,8.8120587 C18.8415525,8.35965367 19.3583792,7.7943768 19.7647059,7.15109906 C19.2191666,7.40620778 18.6327336,7.57872735 18.0184581,7.65581055 Z" id="Shape" fill="#880212"></path>
            </g>
        </g>
    </g>
</svg>