<?xml version="1.0" encoding="UTF-8"?>
<svg width="24px" height="24px" viewBox="0 0 24 24" version="1.1" xmlns="http://www.w3.org/2000/svg" xmlns:xlink="http://www.w3.org/1999/xlink">
    <title>whatsapp</title>
    <g id="Layouts" stroke="none" stroke-width="1" fill="none" fill-rule="evenodd">
        <g id="Pillar_page" transform="translate(-1308.000000, -725.000000)">
            <g id="whatsapp" transform="translate(1308.000000, 725.000000)">
                <circle id="Oval-Copy-10" cx="12" cy="12" r="12"></circle>
                <path d="M12.502177,4.00012444 C16.6367964,4.00012444 20,7.36427665 20,11.5000622 C20,15.6357234 16.6367964,19 12.502177,19 C10.9770105,19 9.56206408,18.5459297 8.37639019,17.761106 L5.49362648,18.682437 L6.42813306,15.895921 C5.5289566,14.6612578 5,13.1401409 5,11.4999378 C5,7.36415221 8.3632036,4 12.497823,4 Z M9.63624263,7.75 C9.35387275,7.75 9.05863445,7.83228982 8.88056004,8.01423223 C8.6635127,8.23517978 8.125,8.75068329 8.125,9.80785676 C8.125,10.8650302 8.89796304,11.8874781 9.00213596,12.0305377 C9.11072091,12.1733527 10.5090891,14.374269 12.6802978,15.2712647 C14.3781938,15.9731125 14.8820231,15.9080632 15.2684433,15.8257733 C15.8329379,15.7044784 16.5408236,15.2883829 16.718898,14.7859627 C16.8969724,14.2832978 16.8969724,13.8543637 16.8447634,13.7633925 C16.7926769,13.6724213 16.6492859,13.6205775 16.4322386,13.5121212 C16.2151913,13.4037872 15.1598583,12.8838819 14.9600915,12.814553 C14.764614,12.7409446 14.5779607,12.7669888 14.4304028,12.9749753 C14.2219344,13.2652518 14.0178781,13.55993 13.8527946,13.7374706 C13.7225172,13.8761283 13.5096368,13.8934911 13.3316849,13.8197604 C13.0928226,13.7202301 12.424155,13.486077 11.5989829,12.7539055 C10.9605868,12.1864359 10.5263696,11.4803086 10.4005042,11.2680425 C10.2745162,11.0514968 10.3875132,10.9256777 10.4872741,10.8087846 C10.595859,10.6744064 10.7000319,10.5791557 10.8086169,10.4534589 C10.9172018,10.3278844 10.9779898,10.2628351 11.0474793,10.115496 C11.1213808,9.97255866 11.0691717,9.82521954 11.0170853,9.71688555 L11.0003076,9.67972285 L10.9372411,9.5320539 C10.7906674,9.18433055 10.4926228,8.45948983 10.3527072,8.12256622 C10.2094388,7.78032374 10.1008538,7.76736278 9.8838065,7.75855912 C9.80990501,7.75427956 9.72754713,7.75 9.63624263,7.75 Z" id="Whatsapp" fill="#880212"></path>
            </g>
        </g>
    </g>
</svg>